<?xml version="1.0" encoding="UTF-8"?>
<svg width="700pt" height="700pt" version="1.1" viewBox="0 0 700 700" xmlns="http://www.w3.org/2000/svg" xmlns:xlink="http://www.w3.org/1999/xlink">
 <defs>
  <symbol id="h" overflow="visible">
   <path d="m39.078-2.3281c-2.0117 1.043-4.1094 1.8281-6.2969 2.3594s-4.4648 0.79688-6.8281 0.79688c-7.0859 0-12.699-1.9766-16.844-5.9375-4.1367-3.957-6.2031-9.3281-6.2031-16.109 0-6.7891 2.0664-12.164 6.2031-16.125 4.1445-3.9688 9.7578-5.9531 16.844-5.9531 2.3633 0 4.6406 0.26562 6.8281 0.79688s4.2852 1.3242 6.2969 2.375v8.7969c-2.0312-1.3828-4.0391-2.3984-6.0156-3.0469-1.9688-0.64453-4.0469-0.96875-6.2344-0.96875-3.9062 0-6.9844 1.2578-9.2344 3.7656-2.2422 2.5-3.3594 5.9531-3.3594 10.359 0 4.3867 1.1172 7.8359 3.3594 10.344 2.25 2.5 5.3281 3.75 9.2344 3.75 2.1875 0 4.2656-0.32031 6.2344-0.96875 1.9766-0.64453 3.9844-1.6602 6.0156-3.0469z"/>
  </symbol>
  <symbol id="g" overflow="visible">
   <path d="m16.031-40.953v9.0625h10.516v7.2812h-10.516v13.531c0 1.4805 0.28906 2.4805 0.875 3 0.59375 0.52344 1.7656 0.78125 3.5156 0.78125h5.2344v7.2969h-8.7344c-4.0312 0-6.8867-0.83594-8.5625-2.5156-1.6797-1.6875-2.5156-4.5391-2.5156-8.5625v-13.531h-5.0781v-7.2812h5.0781v-9.0625z"/>
  </symbol>
  <symbol id="f" overflow="visible">
   <path d="m26.594-27.234v-17.078h10.266v44.312h-10.266v-4.6094c-1.3984 1.875-2.9453 3.25-4.6406 4.125-1.6875 0.875-3.6406 1.3125-5.8594 1.3125-3.9297 0-7.1562-1.5625-9.6875-4.6875-2.5234-3.125-3.7812-7.1445-3.7812-12.062 0-4.9141 1.2578-8.9375 3.7812-12.062 2.5312-3.125 5.7578-4.6875 9.6875-4.6875 2.1953 0 4.1445 0.44531 5.8438 1.3281 1.707 0.88672 3.2578 2.2578 4.6562 4.1094zm-6.7188 20.656c2.1875 0 3.8516-0.79688 5-2.3906 1.1445-1.5938 1.7188-3.9102 1.7188-6.9531 0-3.0391-0.57422-5.3594-1.7188-6.9531-1.1484-1.5938-2.8125-2.3906-5-2.3906-2.168 0-3.8242 0.79688-4.9688 2.3906-1.1484 1.5938-1.7188 3.9141-1.7188 6.9531 0 3.043 0.57031 5.3594 1.7188 6.9531 1.1445 1.5938 2.8008 2.3906 4.9688 2.3906z"/>
  </symbol>
  <symbol id="e" overflow="visible">
   <path d="m21.875-6.5781c2.1758 0 3.8359-0.79688 4.9844-2.3906 1.1562-1.5938 1.7344-3.9102 1.7344-6.9531 0-3.0391-0.57812-5.3594-1.7344-6.9531-1.1484-1.5938-2.8086-2.3906-4.9844-2.3906-2.1875 0-3.8672 0.80469-5.0312 2.4062-1.168 1.6055-1.75 3.918-1.75 6.9375 0 3.0234 0.58203 5.3359 1.75 6.9375 1.1641 1.6055 2.8438 2.4062 5.0312 2.4062zm-6.7812-20.656c1.4062-1.8516 2.9609-3.2227 4.6719-4.1094 1.707-0.88281 3.6719-1.3281 5.8906-1.3281 3.9375 0 7.1641 1.5625 9.6875 4.6875 2.5195 3.125 3.7812 7.1484 3.7812 12.062 0 4.918-1.2617 8.9375-3.7812 12.062-2.5234 3.125-5.75 4.6875-9.6875 4.6875-2.2188 0-4.1836-0.44531-5.8906-1.3281-1.7109-0.88281-3.2656-2.2539-4.6719-4.1094v4.6094h-10.188v-44.312h10.188z"/>
  </symbol>
  <symbol id="d" overflow="visible">
   <path d="m16.312-34.234v25.953h3.9375c4.4766 0 7.8984-1.1094 10.266-3.3281 2.3633-2.2266 3.5469-5.457 3.5469-9.6875 0-4.2188-1.1797-7.4258-3.5312-9.625-2.3555-2.207-5.7812-3.3125-10.281-3.3125zm-10.953-8.2812h11.562c6.4453 0 11.25 0.46094 14.406 1.375 3.1641 0.91797 5.8789 2.4805 8.1406 4.6875 2 1.918 3.4844 4.1328 4.4531 6.6406 0.96875 2.5 1.4531 5.3398 1.4531 8.5156 0 3.2109-0.48438 6.0742-1.4531 8.5938-0.96875 2.5117-2.4531 4.7266-4.4531 6.6406-2.2734 2.1992-5.0078 3.7617-8.2031 4.6875-3.1875 0.91797-7.9688 1.375-14.344 1.375h-11.562z"/>
  </symbol>
  <symbol id="c" overflow="visible">
   <path d="m4.9062-31.891h10.188v31.891h-10.188zm0-12.422h10.188v8.3125h-10.188z"/>
  </symbol>
  <symbol id="b" overflow="visible">
   <path d="m4.9062-44.312h10.188v44.312h-10.188z"/>
  </symbol>
  <symbol id="a" overflow="visible">
   <path d="m0.28125-42.516h39.188v8.2812h-14.094v34.234h-10.969v-34.234h-14.125z"/>
  </symbol>
 </defs>
 <g>
  <path d="m350.82 285.37-73.383 2.8008c-7.6289 0.3125-14.98 2.9336-21.082 7.5156-6.1055 4.582-10.672 10.914-13.102 18.148l-20.766 63.234v1.8672c0.058594 10.5 4.2578 20.555 11.684 27.98 7.4258 7.4258 17.48 11.625 27.98 11.688 7.0078 0.003907 13.891-1.8477 19.953-5.3672l29.516-16.566c5.6055-3.2227 7.5391-10.379 4.3164-15.984-3.2227-5.6055-10.379-7.5391-15.984-4.3164l-29.633 17.148c-4.793 2.7539-10.656 2.8984-15.578 0.37891-4.9219-2.5234-8.2383-7.3594-8.8047-12.859l19.484-59.383v-0.003906c0.91406-2.75 2.6406-5.1562 4.9531-6.9062s5.1016-2.7578 7.9961-2.8906l74.434-2.8008c10.418-0.1875 19.949-5.9219 24.996-15.039 5.0469-9.1172 4.8477-20.234-0.52344-29.168-5.375-8.9297-15.102-14.316-25.523-14.129l-73.5-2.918v0.003906c-5.8789-0.23828-10.992-4.0977-12.832-9.6836l-19.484-59.266c0.41016-5.2812 3.4297-10.008 8.0508-12.602 2.4961-1.457 5.3359-2.2227 8.2227-2.2227 2.8906 0 5.7305 0.76562 8.2266 2.2227l171.96 99.285c2.4883 1.4219 4.5547 3.4766 5.9883 5.957 1.4336 2.4766 2.1875 5.293 2.1797 8.1562 0.023438 2.9023-0.71875 5.7539-2.1523 8.2734-1.4336 2.5234-3.5078 4.6172-6.0156 6.0781l-100.1 57.633h0.003906c-5.2773 3.3555-6.9727 10.273-3.8438 15.684 3.1289 5.4141 9.9688 7.3984 15.508 4.5l100.1-57.633c6.1172-3.5469 11.18-8.6562 14.668-14.809 3.4844-6.1523 5.2695-13.121 5.1641-20.191 0.007812-6.9414-1.8242-13.762-5.3086-19.766-3.4844-6.0039-8.4922-10.977-14.523-14.418l-172.08-99.168c-8.1484-4.6484-17.68-6.2695-26.906-4.5742-9.2266 1.6953-17.559 6.5938-23.523 13.836-5.9648 7.2422-9.1758 16.359-9.0703 25.738v1.8672l20.766 62.301c2.4297 7.2383 6.9961 13.566 13.102 18.148 6.1016 4.5859 13.453 7.207 21.082 7.5195l72.449 2.8008v-0.003906c1.4453 0.089844 2.7969 0.76172 3.7422 1.8594 0.94141 1.0977 1.4023 2.5312 1.2734 3.9766 0.50391 2.793-1.3047 5.4805-4.082 6.0664z"/>
  <use x="70" y="735" xlink:href="#h"/>
  <use x="220.503906" y="735" xlink:href="#g"/>
  <use x="287.953125" y="735" xlink:href="#f"/>
  <use x="350.015625" y="735" xlink:href="#e"/>
  <use x="450.105469" y="735" xlink:href="#d"/>
  <use x="579.417969" y="735" xlink:href="#c"/>
  <use x="638.976562" y="735" xlink:href="#b"/>
  <use x="679.28125" y="735" xlink:href="#a"/>
 </g>
</svg>
